<?xml version="1.0" encoding="UTF-8" standalone="no"?>
<svg
   xmlns:dc="http://purl.org/dc/elements/1.1/"
   xmlns:cc="http://creativecommons.org/ns#"
   xmlns:rdf="http://www.w3.org/1999/02/22-rdf-syntax-ns#"
   xmlns:svg="http://www.w3.org/2000/svg"
   xmlns="http://www.w3.org/2000/svg"
   xmlns:sodipodi="http://sodipodi.sourceforge.net/DTD/sodipodi-0.dtd"
   xmlns:inkscape="http://www.inkscape.org/namespaces/inkscape"
   version="1.1"
   id="svg10"
   width="135"
   height="135"
   viewBox="0 0 135 135"
   sodipodi:docname="favicon.svg"
   inkscape:version="1.0.2-2 (e86c870879, 2021-01-15)">
  <metadata
     id="metadata16">
    <rdf:RDF>
      <cc:Work
         rdf:about="">
        <dc:format>image/svg+xml</dc:format>
        <dc:type
           rdf:resource="http://purl.org/dc/dcmitype/StillImage" />
        <dc:title></dc:title>
      </cc:Work>
    </rdf:RDF>
  </metadata>
  <defs
     id="defs14">
    <clipPath
       clipPathUnits="userSpaceOnUse"
       id="clipPath24">
      <path
         style="fill:none;stroke:#000000;stroke-width:1px;stroke-linecap:butt;stroke-linejoin:miter;stroke-opacity:1"
         d="m 20.117694,45.998268 0.104779,-3.562508 -1.152576,-2.619491 v -4.086407 l 0.314339,-3.352949 1.466915,-1.571695 0.628678,-2.409932 1.676475,-0.628678 1.257356,-0.943016 3.981626,-0.10478 2.095593,-0.523898 1.781255,-3.667288 4.191186,-3.667288 h 4.086406 l 1.990814,0.209559 1.886034,1.257356 1.257355,-0.628678 3.03861,-1.257356 3.457729,0.10478 2.619491,1.257356 2.933831,2.305152 1.047796,2.305153 0.838237,1.362135 1.152577,0.10478 1.152576,-1.047797 1.362135,-0.838237 3.03861,0.10478 1.781254,0.838237 1.466916,2.514711 0.523898,1.886034 0.733457,0.838238 h 0.943017 l 1.781254,0.209559 1.047797,0.838237 0.523898,2.200373 0.523899,1.466915 0.523898,2.305152 -0.419119,1.466916 -1.047796,0.523898 v 2.095593 l 0.523898,0.943017 1.257356,1.362135 0.628678,1.152576 0.523898,1.990814 0.10478,1.047796 -0.10478,2.305153 v 1.362135 l -0.314339,1.362136 -0.523898,0.523898 -0.943017,1.152576 -0.628678,1.152577 -0.943017,0.943016 -0.943017,1.257356 -0.419118,0.733458 -1.362136,1.152576 -1.886034,0.209559 -1.886034,1.152577 -1.466915,0.209559 -1.257356,0.419119 -1.886033,0.838237 -0.733458,1.047796 0.314339,1.571695 v 1.362136 l -0.209559,1.676474 -0.838237,0.943017 -2.933831,1.781254 -1.781254,0.523898 -1.781254,-0.209559 -2.200373,-0.314339 H 49.875116 L 46.522167,70.831046 44.217014,70.516708 40.654506,69.67847 39.082811,68.106775 37.091998,67.897216 H 34.786845 L 33.529489,68.001996 32.272134,66.63986 30.490879,65.906403 28.500066,63.81081 26.090134,63.60125 24.2041,62.658233 22.841965,60.981759 v -1.257356 l -0.20956,-1.152576 -0.419118,-1.466915 -0.628678,-1.466915 -0.628678,-2.200373 -0.419119,-0.838237 -0.523898,-1.362136 -0.209559,-1.362135 V 48.61776 l 0.733457,-0.419119 0.20956,-1.781254 z"
         id="path26" />
    </clipPath>
  </defs>
  <sodipodi:namedview
     pagecolor="#d4d3d3"
     bordercolor="#666666"
     borderopacity="1"
     objecttolerance="10"
     gridtolerance="10"
     guidetolerance="10"
     inkscape:pageopacity="0"
     inkscape:pageshadow="2"
     inkscape:window-width="1920"
     inkscape:window-height="1001"
     id="namedview12"
     showgrid="false"
     inkscape:zoom="2.2259301"
     inkscape:cx="174.96076"
     inkscape:cy="103.56142"
     inkscape:window-x="-9"
     inkscape:window-y="-9"
     inkscape:window-maximized="1"
     inkscape:current-layer="g18"
     fit-margin-top="0"
     fit-margin-left="0"
     fit-margin-right="0"
     fit-margin-bottom="0"
     scale-x="1"
     inkscape:document-rotation="0" />
  <g
     inkscape:groupmode="layer"
     inkscape:label="Image"
     id="g18"
     transform="translate(397.23057,300.93783)">
    <g
       id="g844"
       transform="translate(79.966573,7.1880066)">
      <circle
         style="opacity:1;fill:#ffffff;fill-opacity:1;stroke:#ffffff;stroke-width:0.849532"
         id="path839"
         cx="-409.69714"
         cy="-240.62584"
         r="67.075233" />
      <text
         xml:space="preserve"
         style="font-style:normal;font-weight:normal;font-size:37.3698px;line-height:1.25;font-family:sans-serif;fill:#483d8b;fill-opacity:1;stroke:none;stroke-width:0.934246"
         x="-477.17783"
         y="-179.61258"
         id="text30"
         transform="scale(0.93424599,1.0703819)"><tspan
           id="tspan28"
           x="-477.17783"
           y="-179.61258"
           style="font-style:normal;font-variant:normal;font-weight:normal;font-stretch:normal;font-size:149.479px;font-family:'High Tower Text';-inkscape-font-specification:'High Tower Text';fill:#483d8b;fill-opacity:1;stroke-width:0.934246"
           sodipodi:role="line">L</tspan></text>
    </g>
  </g>
</svg>
