<?xml version="1.0" encoding="UTF-8" standalone="no"?>
<svg
   xmlns:dc="http://purl.org/dc/elements/1.1/"
   xmlns:cc="http://creativecommons.org/ns#"
   xmlns:rdf="http://www.w3.org/1999/02/22-rdf-syntax-ns#"
   xmlns:svg="http://www.w3.org/2000/svg"
   xmlns="http://www.w3.org/2000/svg"
   xmlns:xlink="http://www.w3.org/1999/xlink"
   xmlns:sodipodi="http://sodipodi.sourceforge.net/DTD/sodipodi-0.dtd"
   xmlns:inkscape="http://www.inkscape.org/namespaces/inkscape"
   width="524.95538"
   height="95"
   version="1.1"
   id="svg17"
   sodipodi:docname="logo-imersao-aluraflix.svg"
   inkscape:version="1.0.2-2 (e86c870879, 2021-01-15)">
  <metadata
     id="metadata21">
    <rdf:RDF>
      <cc:Work
         rdf:about="">
        <dc:format>image/svg+xml</dc:format>
        <dc:type
           rdf:resource="http://purl.org/dc/dcmitype/StillImage" />
        <dc:title></dc:title>
      </cc:Work>
    </rdf:RDF>
  </metadata>
  <sodipodi:namedview
     pagecolor="#bebebe"
     bordercolor="#666666"
     borderopacity="1"
     objecttolerance="10"
     gridtolerance="10"
     guidetolerance="10"
     inkscape:pageopacity="0"
     inkscape:pageshadow="2"
     inkscape:window-width="1920"
     inkscape:window-height="1001"
     id="namedview19"
     showgrid="false"
     fit-margin-top="0"
     fit-margin-left="0"
     fit-margin-right="0"
     fit-margin-bottom="0"
     inkscape:zoom="2.2112882"
     inkscape:cx="233.54067"
     inkscape:cy="38.083604"
     inkscape:window-x="-9"
     inkscape:window-y="-9"
     inkscape:window-maximized="1"
     inkscape:current-layer="svg17" />
  <defs
     id="defs3">
    <path
       d="m 14.407,26.728 c 1.053,0 1.815,-0.293 2.287,-0.878 0.471,-0.585 0.707,-1.282 0.707,-2.092 0,-0.45 -0.06,-0.866 -0.181,-1.249 a 2.716,2.716 0 0 0 -0.576,-1.012 2.773,2.773 0 0 0 -0.92,-0.607 c -0.374,-0.158 -0.812,-0.237 -1.317,-0.237 -0.504,0 -0.943,0.08 -1.315,0.237 -0.373,0.157 -0.68,0.36 -0.921,0.607 a 2.53,2.53 0 0 0 -0.56,1.03 4.57,4.57 0 0 0 -0.164,1.231 c 0,0.81 0.23,1.507 0.69,2.092 0.461,0.585 1.218,0.878 2.27,0.878 z m 14.243,43.53 v -3.61 H 16.513 V 33.747 H 0 v 3.61 h 12.598 v 29.29 H 0 v 3.611 z m 11.151,0 0.033,-27.84 c 0.176,-0.674 0.395,-1.349 0.658,-2.024 a 6.329,6.329 0 0 1 1.086,-1.822 c 0.482,-0.585 1.102,-1.052 1.858,-1.4 0.757,-0.35 1.705,-0.535 2.845,-0.557 1.031,-0.023 1.88,0.135 2.55,0.472 0.668,0.338 1.2,0.788 1.595,1.35 0.395,0.585 0.669,1.254 0.822,2.008 0.154,0.753 0.23,1.513 0.23,2.278 l 0.033,27.535 h 3.717 l 0.033,-27.502 -0.004,-0.16 -0.012,-0.143 a 2.53,2.53 0 0 1 -0.017,-0.304 c 0.154,-0.675 0.373,-1.339 0.658,-1.991 a 6.186,6.186 0 0 1 1.152,-1.755 c 0.504,-0.517 1.129,-0.939 1.875,-1.265 0.745,-0.326 1.666,-0.5 2.763,-0.523 1.074,-0.023 1.951,0.152 2.631,0.523 0.68,0.371 1.217,0.86 1.612,1.468 a 5.96,5.96 0 0 1 0.806,2.126 c 0.142,0.787 0.214,1.574 0.214,2.362 l 0.032,27.164 h 3.717 l 0.033,-27.13 c 0,-1.395 -0.142,-2.706 -0.427,-3.932 -0.285,-1.226 -0.757,-2.3 -1.415,-3.222 -0.592,-0.878 -1.414,-1.58 -2.467,-2.11 -1.052,-0.528 -2.324,-0.792 -3.815,-0.792 -1.031,0 -1.969,0.135 -2.813,0.405 -0.844,0.27 -1.606,0.63 -2.286,1.08 a 8.286,8.286 0 0 0 -1.677,1.484 9.491,9.491 0 0 0 -1.218,1.789 8.613,8.613 0 0 0 -0.855,-1.823 5.982,5.982 0 0 0 -1.316,-1.484 c -0.592,-0.45 -1.293,-0.805 -2.105,-1.063 -0.811,-0.259 -1.743,-0.388 -2.796,-0.388 -1.951,0.022 -3.558,0.466 -4.819,1.333 -1.26,0.866 -2.242,2.019 -2.944,3.458 l -0.131,-4.116 h -3.52 v 36.511 z m 55.327,0.675 c 2.96,0 5.56,-0.596 7.796,-1.788 2.237,-1.192 4.035,-2.756 5.395,-4.69 l -2.5,-1.958 c -1.272,1.62 -2.796,2.857 -4.572,3.712 -1.777,0.855 -3.761,1.282 -5.954,1.282 -1.908,-0.022 -3.64,-0.416 -5.197,-1.18 a 12.264,12.264 0 0 1 -4.013,-3.139 c -1.097,-1.26 -1.957,-2.722 -2.582,-4.387 -0.625,-1.665 -0.982,-3.464 -1.07,-5.399 v -1.114 h 26.644 V 49.81 c 0,-2.317 -0.323,-4.494 -0.97,-6.53 -0.647,-2.036 -1.584,-3.818 -2.812,-5.348 -1.25,-1.507 -2.79,-2.694 -4.622,-3.56 -1.831,-0.866 -3.92,-1.3 -6.266,-1.3 -2.237,0 -4.315,0.473 -6.234,1.418 a 15.655,15.655 0 0 0 -5.016,3.914 c -1.447,1.665 -2.582,3.622 -3.404,5.872 -0.823,2.25 -1.234,4.68 -1.234,7.289 v 1.45 c 0,2.453 0.406,4.764 1.217,6.935 0.812,2.171 1.952,4.078 3.421,5.72 1.447,1.62 3.19,2.902 5.23,3.847 2.04,0.945 4.287,1.417 6.743,1.417 z M 105.161,48.797 H 82.629 c 0.22,-1.755 0.658,-3.38 1.316,-4.876 0.657,-1.496 1.502,-2.796 2.532,-3.898 a 11.215,11.215 0 0 1 3.52,-2.548 c 1.338,-0.618 2.807,-0.928 4.408,-0.928 1.688,0 3.19,0.332 4.506,0.996 a 10.454,10.454 0 0 1 3.355,2.649 c 0.9,1.102 1.607,2.384 2.122,3.847 0.515,1.462 0.773,2.924 0.773,4.387 v 0.37 z m 24.769,21.461 -0.066,-23.385 c 0.439,-1.664 1.07,-3.11 1.892,-4.336 0.822,-1.226 1.792,-2.244 2.91,-3.054 a 12.104,12.104 0 0 1 3.931,-1.839 c 1.459,-0.394 3.021,-0.59 4.688,-0.59 0.965,0 1.908,0.056 2.829,0.168 0.92,0.113 1.83,0.27 2.73,0.473 l 0.526,-3.915 c -0.68,-0.225 -1.519,-0.4 -2.516,-0.523 a 23.909,23.909 0 0 0 -2.944,-0.185 c -3.224,-0.023 -6.025,0.663 -8.405,2.058 -2.379,1.395 -4.26,3.34 -5.64,5.838 l -0.034,-1.62 -0.23,-5.601 h -3.75 v 36.511 z m 45.623,0.675 a 21.53,21.53 0 0 0 5.494,-0.708 c 1.798,-0.473 3.377,-1.204 4.736,-2.194 a 9.99,9.99 0 0 0 2.73,-3.087 c 0.702,-1.226 1.053,-2.627 1.053,-4.202 0,-1.664 -0.367,-3.087 -1.102,-4.268 -0.734,-1.181 -1.716,-2.188 -2.944,-3.02 -1.25,-0.833 -2.697,-1.519 -4.342,-2.059 a 55.99,55.99 0 0 0 -5.164,-1.417 54.503,54.503 0 0 1 -4.03,-0.996 c -1.282,-0.37 -2.384,-0.838 -3.305,-1.4 -0.921,-0.518 -1.623,-1.164 -2.106,-1.94 -0.482,-0.777 -0.723,-1.693 -0.723,-2.75 0,-1.058 0.274,-1.986 0.822,-2.785 a 6.648,6.648 0 0 1 2.138,-1.974 c 0.877,-0.54 1.88,-0.939 3.01,-1.198 a 15.64,15.64 0 0 1 3.503,-0.388 c 1.272,0 2.506,0.169 3.7,0.506 1.196,0.338 2.265,0.822 3.208,1.452 a 7.901,7.901 0 0 1 2.253,2.328 c 0.581,0.922 0.883,1.968 0.905,3.138 h 3.98 c -0.066,-1.732 -0.477,-3.273 -1.234,-4.623 a 11.042,11.042 0 0 0 -3.01,-3.442 c -1.25,-0.922 -2.713,-1.625 -4.39,-2.109 -1.678,-0.484 -3.482,-0.725 -5.412,-0.725 -1.71,0 -3.371,0.225 -4.983,0.675 -1.612,0.45 -3.02,1.08 -4.227,1.89 -1.272,0.877 -2.286,1.934 -3.043,3.171 -0.756,1.238 -1.135,2.644 -1.135,4.218 0,1.665 0.379,3.077 1.135,4.235 a 9.155,9.155 0 0 0 2.977,2.852 20.863,20.863 0 0 0 4.243,1.923 47.63,47.63 0 0 0 5,1.316 39.32,39.32 0 0 1 4.178,1.148 c 1.337,0.45 2.478,0.99 3.42,1.62 0.856,0.562 1.525,1.242 2.007,2.04 0.483,0.8 0.724,1.728 0.724,2.785 0,0.855 -0.181,1.63 -0.543,2.328 a 5.926,5.926 0 0 1 -1.53,1.856 c -1.008,0.788 -2.203,1.378 -3.585,1.772 -1.381,0.394 -2.85,0.59 -4.408,0.59 -1.184,0 -2.395,-0.118 -3.634,-0.354 a 11.029,11.029 0 0 1 -3.405,-1.232 8.4,8.4 0 0 1 -2.615,-2.311 C 165.186,62.638 164.764,61.44 164.633,60 h -3.947 c 0.065,1.665 0.487,3.172 1.266,4.522 0.778,1.35 1.847,2.497 3.207,3.442 1.316,0.922 2.873,1.648 4.67,2.176 1.8,0.529 3.707,0.793 5.724,0.793 z m 31.94,-44.24 c 0.044,-0.809 0.269,-1.523 0.674,-2.142 0.406,-0.619 0.927,-1.018 1.563,-1.198 0.439,-0.202 0.894,-0.32 1.365,-0.354 0.472,-0.034 0.981,0.005 1.53,0.118 a 5.228,5.228 0 0 1 1.727,0.692 78.56,78.56 0 0 0 1.792,1.096 c 0.592,0.405 1.212,0.76 1.859,1.063 0.647,0.304 1.398,0.456 2.253,0.456 0.92,0 1.76,-0.186 2.516,-0.557 a 5.627,5.627 0 0 0 1.925,-1.535 6.336,6.336 0 0 0 1.266,-2.177 8.564,8.564 0 0 0 0.477,-2.649 L 223.874,19 a 6.16,6.16 0 0 1 -0.329,1.586 4.43,4.43 0 0 1 -0.69,1.282 c -0.307,0.383 -0.68,0.686 -1.119,0.911 a 3.196,3.196 0 0 1 -1.48,0.338 c -0.877,0 -1.672,-0.191 -2.385,-0.574 a 21.342,21.342 0 0 1 -2.089,-1.282 29.794,29.794 0 0 0 -2.17,-1.266 c -0.746,-0.393 -1.58,-0.59 -2.5,-0.59 -0.943,0 -1.788,0.186 -2.533,0.557 a 5.861,5.861 0 0 0 -1.908,1.501 6.99,6.99 0 0 0 -1.283,2.194 8.11,8.11 0 0 0 -0.493,2.632 l 2.598,0.405 z m 4.77,44.24 c 1.316,0 2.582,-0.14 3.799,-0.421 a 15.96,15.96 0 0 0 3.47,-1.232 14.537,14.537 0 0 0 2.977,-1.907 14.187,14.187 0 0 0 2.385,-2.514 c 0.044,0.945 0.126,1.879 0.247,2.801 0.12,0.922 0.301,1.789 0.542,2.598 h 4.21 V 69.82 a 34.02,34.02 0 0 1 -0.772,-3.527 25.195,25.195 0 0 1 -0.346,-3.695 V 44.95 c -0.022,-1.98 -0.383,-3.712 -1.085,-5.197 a 10.722,10.722 0 0 0 -2.895,-3.746 c -1.228,-0.967 -2.664,-1.698 -4.309,-2.193 -1.645,-0.495 -3.41,-0.742 -5.296,-0.742 -1.886,0 -3.656,0.27 -5.312,0.81 -1.656,0.54 -3.108,1.282 -4.358,2.227 -1.25,0.967 -2.248,2.103 -2.994,3.408 -0.745,1.305 -1.151,2.733 -1.217,4.285 l 3.947,0.034 c 0.044,-1.147 0.34,-2.176 0.889,-3.087 a 7.561,7.561 0 0 1 2.17,-2.312 c 0.878,-0.63 1.897,-1.114 3.06,-1.451 a 13.03,13.03 0 0 1 3.65,-0.506 c 1.382,0 2.67,0.185 3.866,0.557 1.195,0.37 2.231,0.905 3.108,1.603 a 7.39,7.39 0 0 1 2.073,2.615 c 0.504,1.046 0.767,2.255 0.789,3.627 V 49 h -7.73 a 31.36,31.36 0 0 0 -6.348,0.624 c -2.018,0.417 -3.783,1.086 -5.296,2.008 -1.535,0.923 -2.758,2.12 -3.668,3.594 -0.91,1.474 -1.365,3.256 -1.365,5.349 0,1.552 0.307,2.97 0.921,4.252 a 9.497,9.497 0 0 0 2.5,3.239 c 1.052,0.9 2.302,1.603 3.75,2.11 1.447,0.505 2.993,0.758 4.638,0.758 z m 0.46,-3.61 c -1.162,0 -2.247,-0.17 -3.256,-0.507 -1.009,-0.337 -1.886,-0.81 -2.632,-1.417 a 6.317,6.317 0 0 1 -1.792,-2.244 c -0.428,-0.888 -0.642,-1.873 -0.642,-2.953 -0.022,-1.372 0.263,-2.53 0.855,-3.475 0.592,-0.945 1.393,-1.744 2.402,-2.396 1.228,-0.81 2.719,-1.372 4.473,-1.687 a 33.637,33.637 0 0 1 5.56,-0.507 h 7.17 v 7.998 a 11.698,11.698 0 0 1 -1.974,2.953 12.35,12.35 0 0 1 -2.796,2.277 13.58,13.58 0 0 1 -3.453,1.451 c -1.25,0.338 -2.555,0.507 -3.915,0.507 z m 42.828,3.61 c 2.478,0 4.698,-0.495 6.66,-1.484 a 15.177,15.177 0 0 0 4.984,-3.982 c 1.338,-1.688 2.369,-3.64 3.092,-5.855 0.724,-2.216 1.086,-4.572 1.086,-7.07 v -1.08 c 0,-2.497 -0.362,-4.859 -1.086,-7.086 -0.723,-2.227 -1.765,-4.173 -3.125,-5.838 a 14.805,14.805 0 0 0 -4.983,-3.998 c -1.963,-0.98 -4.194,-1.468 -6.694,-1.468 -2.5,0 -4.726,0.495 -6.677,1.484 a 15.229,15.229 0 0 0 -4.967,3.982 c -1.36,1.688 -2.402,3.645 -3.125,5.872 -0.724,2.227 -1.086,4.578 -1.086,7.053 v 1.08 c 0,2.497 0.362,4.859 1.086,7.086 0.723,2.227 1.776,4.173 3.158,5.838 a 14.433,14.433 0 0 0 4.966,3.998 c 1.974,0.979 4.21,1.468 6.71,1.468 z m 0,-3.442 c -1.952,0 -3.673,-0.416 -5.164,-1.248 a 11.309,11.309 0 0 1 -3.717,-3.307 c -1.031,-1.395 -1.804,-2.992 -2.32,-4.792 a 21.126,21.126 0 0 1 -0.805,-5.602 v -1.08 a 21.01,21.01 0 0 1 0.806,-5.567 c 0.515,-1.8 1.288,-3.386 2.319,-4.758 a 11.215,11.215 0 0 1 3.7,-3.341 c 1.48,-0.832 3.185,-1.249 5.115,-1.249 1.93,0 3.635,0.417 5.115,1.249 a 11.884,11.884 0 0 1 3.766,3.34 c 0.987,1.373 1.744,2.959 2.27,4.759 0.526,1.8 0.8,3.655 0.822,5.568 v 1.08 a 21.126,21.126 0 0 1 -0.806,5.601 c -0.515,1.8 -1.266,3.386 -2.253,4.758 a 11.946,11.946 0 0 1 -3.75,3.34 c -1.469,0.833 -3.168,1.25 -5.098,1.25 z"
       id="a" />
    <clipPath
       clipPathUnits="userSpaceOnUse"
       id="clipPath39">
      <path
         style="fill:none;stroke:#000000;stroke-width:1px;stroke-linecap:butt;stroke-linejoin:miter;stroke-opacity:1"
         d="M 287.858,0 V 95 H 473 V 0 Z"
         id="path41" />
    </clipPath>
    <clipPath
       clipPathUnits="userSpaceOnUse"
       id="clipPath43">
      <path
         style="fill:none;stroke:#000000;stroke-width:1px;stroke-linecap:butt;stroke-linejoin:miter;stroke-opacity:1"
         d="M 287.858,0 V 95 H 473 V 0 Z"
         id="path45" />
    </clipPath>
  </defs>
  <g
     fill="none"
     fill-rule="evenodd"
     id="g15"
     clip-path="url(#clipPath43)"
     transform="translate(51.9554)">
    <g
       fill-rule="nonzero"
       id="g9">
      <use
         fill="#353535"
         xlink:href="#a"
         id="use5"
         x="0"
         y="0"
         width="100%"
         height="100%" />
      <use
         fill="#ffffff"
         xlink:href="#a"
         id="use7"
         x="0"
         y="0"
         width="100%"
         height="100%" />
    </g>
    <path
       fill="#da1e26"
       style="mix-blend-mode:screen"
       d="M 287.858,0 H 473 V 95 H 287.858 Z"
       id="path11" />
    <path
       d="m 319.499,70.861 c 1.992,0 3.742,-0.38 5.253,-1.138 1.51,-0.759 2.823,-1.82 3.94,-3.187 l 0.46,3.675 h 8.24 V 20.267 h -9.16 v 17.916 c -1.095,-1.214 -2.348,-2.152 -3.76,-2.813 -1.411,-0.66 -3.047,-0.992 -4.908,-0.992 -2.21,0 -4.175,0.434 -5.893,1.301 -1.718,0.867 -3.179,2.092 -4.383,3.674 -1.203,1.583 -2.117,3.48 -2.741,5.69 -0.624,2.212 -0.936,4.65 -0.936,7.317 v 0.682 c 0,2.558 0.318,4.927 0.952,7.105 0.635,2.179 1.554,4.06 2.758,5.642 a 12.76,12.76 0 0 0 4.35,3.723 c 1.718,0.9 3.66,1.35 5.828,1.35 z m 2.33,-7.348 c -1.29,0 -2.385,-0.271 -3.282,-0.813 -0.898,-0.542 -1.63,-1.29 -2.2,-2.244 -0.57,-0.932 -0.98,-2.032 -1.231,-3.3 -0.252,-1.268 -0.378,-2.64 -0.378,-4.114 V 52.36 c 0,-1.474 0.132,-2.856 0.394,-4.146 0.263,-1.29 0.679,-2.423 1.248,-3.398 a 6.482,6.482 0 0 1 2.216,-2.26 c 0.908,-0.553 2.008,-0.829 3.3,-0.829 1.553,0 2.845,0.33 3.873,0.992 1.03,0.66 1.85,1.588 2.463,2.78 V 59.74 c -0.613,1.17 -1.44,2.092 -2.479,2.764 -1.04,0.672 -2.347,1.008 -3.923,1.008 z m 42.32,7.348 c 3.436,0 6.413,-0.661 8.93,-1.983 2.517,-1.323 4.355,-2.797 5.516,-4.423 l -4.564,-4.877 c -1.05,1.344 -2.419,2.352 -4.104,3.024 a 13.972,13.972 0 0 1 -5.22,1.008 c -1.27,0 -2.44,-0.195 -3.513,-0.585 a 9.118,9.118 0 0 1 -2.856,-1.659 8.63,8.63 0 0 1 -1.937,-2.324 c -0.482,-0.857 -0.876,-1.99 -1.182,-3.398 v -0.098 h 24.098 V 51.71 c 0,-2.58 -0.361,-4.937 -1.084,-7.072 -0.722,-2.135 -1.772,-3.961 -3.151,-5.479 -1.401,-1.517 -3.103,-2.693 -5.106,-3.528 -2.002,-0.834 -4.284,-1.252 -6.845,-1.252 -2.473,0 -4.76,0.445 -6.862,1.334 -2.1,0.888 -3.917,2.135 -5.45,3.739 -1.532,1.604 -2.724,3.517 -3.578,5.739 -0.854,2.222 -1.28,4.677 -1.28,7.365 v 1.3 c 0,2.363 0.432,4.58 1.296,6.65 a 15.652,15.652 0 0 0 3.694,5.381 c 1.598,1.54 3.513,2.753 5.745,3.642 2.233,0.889 4.717,1.333 7.453,1.333 z m 6.205,-21.558 h -14.971 c 0.219,-1.149 0.547,-2.19 0.985,-3.121 a 8.695,8.695 0 0 1 1.642,-2.406 6.485,6.485 0 0 1 2.232,-1.545 c 0.854,-0.358 1.795,-0.536 2.823,-0.536 1.16,0 2.184,0.178 3.07,0.536 0.887,0.358 1.636,0.84 2.25,1.447 a 6.933,6.933 0 0 1 1.444,2.211 c 0.35,0.845 0.525,1.745 0.525,2.699 z m 36.77,20.908 13.494,-35.182 h -9.52 l -7.782,24.81 -0.492,2.47 -0.493,-2.47 -7.813,-24.81 h -9.521 l 13.559,35.182 h 8.569 z m 50.659,7.056 V 70.21 H 427.84 v 7.056 h 29.942 z"
       fill="#ffffff"
       fill-rule="nonzero"
       id="path13" />
  </g>
  <path
     style="fill:none;stroke:#000000;stroke-width:1px;stroke-linecap:butt;stroke-linejoin:miter;stroke-opacity:1"
     d="M 287.858,0 V 95 H 473 V 0 Z"
     id="path33"
     clip-path="url(#clipPath39)"
     transform="translate(51.9554)" />
  <text
     xml:space="preserve"
     style="font-size:40px;line-height:1.25;font-family:'Baskerville Old Face';-inkscape-font-specification:'Baskerville Old Face'"
     x="-6.6354198"
     y="68.917755"
     id="text49"><tspan
       sodipodi:role="line"
       id="tspan47"
       x="-6.6354198"
       y="68.917755"
       style="font-style:normal;font-variant:normal;font-weight:normal;font-stretch:normal;font-size:74.6667px;font-family:consolas;-inkscape-font-specification:consolas;fill:#ffffff">sugestão</tspan></text>
</svg>
